<?xml version="1.0" encoding="UTF-8" standalone="no"?><!DOCTYPE svg PUBLIC "-//W3C//DTD SVG 1.1//EN" "http://www.w3.org/Graphics/SVG/1.1/DTD/svg11.dtd"><svg width="100%" height="100%" viewBox="0 0 2134 2134" version="1.1" xmlns="http://www.w3.org/2000/svg" xmlns:xlink="http://www.w3.org/1999/xlink" xml:space="preserve" xmlns:serif="http://www.serif.com/" style="fill-rule:evenodd;clip-rule:evenodd;stroke-linecap:round;stroke-linejoin:round;stroke-miterlimit:1.5;"><g id="Parasol"><path d="M1011.24,254.274l-9.305,1174.39l-83.468,-0.661l9.306,-1174.39l83.467,0.661Z" style="fill:#f6ddb9;stroke:#000;stroke-width:16.67px;"/><path d="M1571.47,445.965c0.07,0.926 0.101,1.853 0.094,2.782l-601.271,-4.991l-601.271,-4.99c0.642,-77.311 270.36,-137.749 602.433,-134.993c23.356,0.194 46.399,0.696 69.056,1.487c-255.298,13.493 -443.433,65.836 -444.117,130.367l601.257,6.375l373.819,3.963Z" style="fill:#ef3340;stroke:#000;stroke-width:16.67px;"/><path d="M1571.47,445.965l-373.819,-3.963l-601.257,-6.375c0.684,-64.531 188.819,-116.874 444.117,-130.367c295.608,10.326 525.636,70.042 530.959,140.705Z" style="fill:#ffd100;stroke:#000;stroke-width:16.67px;"/><path d="M858.006,305.319c36.746,-1.328 74.671,-1.867 113.447,-1.546c332.072,2.757 600.75,67.663 600.109,144.974l-601.271,-4.991l-213.233,-1.769l584.728,4.028c0.468,-68.027 -207.572,-126.157 -483.78,-140.696Z" style="fill:#009739;stroke:#000;stroke-width:16.67px;"/></g><g id="Straws"><path d="M1137.52,1488.32l0,-760.961l596.27,0l-0,80.431l-515.839,-0l0,680.53l-80.431,0Z" style="fill:#ffd100;stroke:#000;stroke-width:16.67px;"/><path d="M1117.25,552.185l-0.931,-11.733l746.353,-59.224l6.362,80.179l-672.284,53.346l-0,960.751l-80.431,0l-0,-1023.32l0.931,0Z" style="fill:#ffd100;stroke:#000;stroke-width:16.67px;"/></g><g id="Coconut"><path d="M615.125,1140.16l951.348,-0c48.208,83.498 73.587,178.215 73.587,274.631c0,303.145 -246.116,549.261 -549.261,549.261c-303.146,-0 -549.262,-246.116 -549.262,-549.261c0,-96.416 25.38,-191.133 73.588,-274.631Z" style="fill:#889d13;stroke:#000;stroke-width:33.18px;"/><path d="M1476.48,1140.16l-771.361,-0l192.84,-132.129l385.681,0l192.84,132.129Z" style="fill:#e1d8c7;stroke:#000;stroke-width:33.18px;"/><rect x="1048.01" y="1785.88" width="14.16" height="174.641" style="fill:#f3ff21;stroke:#000;stroke-width:16.67px;"/><path d="M1187.26,1828.55l-114.392,131.963l-10.699,-9.275l114.391,-131.962l10.7,9.274Z" style="fill:#f3ff21;stroke:#000;stroke-width:16.67px;"/><path d="M957.544,1815.74l104.626,139.832l-11.338,8.483l-104.625,-139.832l11.337,-8.483Z" style="fill:#f3ff21;stroke:#000;stroke-width:16.67px;"/></g></svg>