<?xml version="1.0" encoding="UTF-8" standalone="no"?><!DOCTYPE svg PUBLIC "-//W3C//DTD SVG 1.1//EN" "http://www.w3.org/Graphics/SVG/1.1/DTD/svg11.dtd"><svg width="100%" height="100%" viewBox="0 0 6250 2134" version="1.1" xmlns="http://www.w3.org/2000/svg" xmlns:xlink="http://www.w3.org/1999/xlink" xml:space="preserve" xmlns:serif="http://www.serif.com/" style="fill-rule:evenodd;clip-rule:evenodd;stroke-linecap:round;stroke-linejoin:round;stroke-miterlimit:1.5;"><g id="Parasol"><path d="M1210.8,90.701l-10.654,1344.6l-95.564,-0.757l10.654,-1344.6l95.564,0.757Z" style="fill:#f6ddb9;stroke:#000;stroke-width:19.08px;"/><path d="M1852.22,310.174c0.08,1.059 0.116,2.121 0.107,3.184l-688.413,-5.713l-688.412,-5.714c0.734,-88.515 309.543,-157.712 689.743,-154.557c26.741,0.222 53.123,0.796 79.065,1.702c-292.299,15.448 -507.701,75.378 -508.484,149.261l688.398,7.299l427.996,4.538Z" style="fill:#ef3340;stroke:#000;stroke-width:19.08px;"/><path d="M1852.22,310.174l-427.996,-4.538l-688.398,-7.299c0.783,-73.883 216.185,-133.813 508.484,-149.261c338.45,11.823 601.815,80.193 607.91,161.098Z" style="fill:#ffd100;stroke:#000;stroke-width:19.08px;"/><path d="M1035.35,149.144c42.072,-1.52 85.493,-2.138 129.889,-1.77c380.199,3.156 687.817,77.469 687.082,165.984l-688.413,-5.713l-244.136,-2.027l669.472,4.613c0.536,-77.887 -237.655,-144.442 -553.894,-161.087Z" style="fill:#009739;stroke:#000;stroke-width:19.08px;"/></g><g id="Straws"><path d="M1355.38,1503.6l-0,-871.247l682.686,-0l0,92.088l-590.599,-0l0,779.159l-92.087,0Z" style="fill:#ffd100;stroke:#000;stroke-width:19.08px;"/><path d="M1332.17,431.788l-1.066,-13.434l854.521,-67.807l7.285,91.799l-769.718,61.078l-0,1099.99l-92.088,-0l-0,-1171.63l1.066,0Z" style="fill:#ffd100;stroke:#000;stroke-width:19.08px;"/></g><g id="Coconut"><path d="M757.271,1104.98l1089.23,-0.001c55.194,95.6 84.252,204.044 84.252,314.433c-0,347.081 -281.785,628.866 -628.866,628.866c-347.08,-0 -628.865,-281.785 -628.865,-628.866c-0,-110.389 29.057,-218.833 84.252,-314.432Z" style="fill:#889d13;stroke:#000;stroke-width:37.99px;"/><path d="M1743.46,1104.98l-883.154,0l220.789,-151.277l441.577,-0l220.788,151.277Z" style="fill:#e1d8c7;stroke:#000;stroke-width:37.99px;"/><rect x="1252.89" y="1844.28" width="16.212" height="199.952" style="fill:#f3ff21;stroke:#000;stroke-width:19.08px;"/><path d="M1412.33,1893.14l-130.97,151.088l-12.25,-10.619l130.97,-151.088l12.25,10.619Z" style="fill:#f3ff21;stroke:#000;stroke-width:19.08px;"/><path d="M1149.32,1878.47l119.788,160.098l-12.981,9.713l-119.788,-160.098l12.981,-9.713Z" style="fill:#f3ff21;stroke:#000;stroke-width:19.08px;"/></g><g transform="matrix(0.997889,0,0,1,-1.60395,1.13687e-13)"><g transform="matrix(1164.17,0,0,1164.17,2369.72,1075.69)"><path d="M0.301,0.007c-0.013,-0 -0.023,-0.004 -0.03,-0.011c-0.007,-0.008 -0.011,-0.018 -0.011,-0.032l0,-0.598l-0.226,-0c-0.011,-0 -0.02,-0.003 -0.027,-0.01c-0.007,-0.006 -0.01,-0.015 -0.01,-0.026c-0,-0.011 0.003,-0.02 0.01,-0.026c0.007,-0.006 0.016,-0.009 0.028,-0.009l0.533,0c0.012,0 0.022,0.003 0.028,0.009c0.007,0.006 0.01,0.015 0.01,0.026c-0,0.011 -0.003,0.02 -0.01,0.026c-0.006,0.007 -0.016,0.01 -0.028,0.01l-0.225,-0l-0,0.598c-0,0.014 -0.004,0.024 -0.011,0.032c-0.006,0.007 -0.017,0.011 -0.031,0.011Z" style="fill-rule:nonzero;"/></g><g transform="matrix(1164.17,0,0,1164.17,2982.08,1075.69)"><path d="M0.072,0.007c-0.011,-0 -0.019,-0.002 -0.026,-0.007c-0.006,-0.005 -0.01,-0.012 -0.011,-0.02c-0.001,-0.009 0.001,-0.018 0.006,-0.029l0.276,-0.626c0.005,-0.013 0.012,-0.023 0.021,-0.028c0.008,-0.006 0.017,-0.009 0.027,-0.009c0.01,0 0.019,0.003 0.027,0.009c0.009,0.005 0.016,0.015 0.021,0.028l0.276,0.626c0.005,0.011 0.007,0.02 0.006,0.029c-0.001,0.009 -0.004,0.015 -0.01,0.02c-0.006,0.005 -0.014,0.007 -0.025,0.007c-0.012,-0 -0.022,-0.003 -0.029,-0.01c-0.007,-0.006 -0.013,-0.015 -0.018,-0.027l-0.074,-0.171l0.04,0.021l-0.43,0l0.041,-0.021l-0.073,0.171c-0.006,0.013 -0.012,0.022 -0.019,0.028c-0.007,0.006 -0.015,0.009 -0.026,0.009Zm0.292,-0.616l-0.161,0.379l-0.024,-0.019l0.37,0l-0.022,0.019l-0.161,-0.379l-0.002,-0Z" style="fill-rule:nonzero;"/></g><g transform="matrix(1164.17,0,0,1164.17,3823.77,1075.69)"><path d="M0.315,0.009c-0.032,-0 -0.062,-0.003 -0.092,-0.008c-0.03,-0.005 -0.057,-0.013 -0.083,-0.023c-0.026,-0.01 -0.049,-0.023 -0.07,-0.038c-0.008,-0.006 -0.014,-0.013 -0.017,-0.021c-0.003,-0.007 -0.004,-0.015 -0.002,-0.022c0.002,-0.008 0.005,-0.014 0.01,-0.02c0.005,-0.005 0.012,-0.008 0.019,-0.009c0.007,-0.001 0.015,0.001 0.024,0.007c0.03,0.022 0.062,0.037 0.096,0.047c0.034,0.01 0.072,0.014 0.115,0.014c0.06,0 0.104,-0.011 0.134,-0.033c0.029,-0.023 0.043,-0.052 0.043,-0.089c0,-0.03 -0.01,-0.053 -0.031,-0.07c-0.021,-0.017 -0.057,-0.031 -0.106,-0.041l-0.104,-0.021c-0.063,-0.013 -0.11,-0.035 -0.141,-0.065c-0.03,-0.031 -0.046,-0.072 -0.046,-0.122c0,-0.032 0.006,-0.06 0.019,-0.086c0.012,-0.025 0.03,-0.047 0.053,-0.065c0.022,-0.019 0.049,-0.033 0.081,-0.043c0.031,-0.01 0.066,-0.015 0.104,-0.015c0.042,0 0.081,0.006 0.117,0.017c0.037,0.012 0.07,0.03 0.099,0.053c0.007,0.006 0.012,0.012 0.015,0.02c0.002,0.008 0.003,0.015 0.001,0.022c-0.002,0.007 -0.005,0.013 -0.011,0.018c-0.005,0.005 -0.011,0.007 -0.019,0.008c-0.007,0.001 -0.016,-0.002 -0.025,-0.008c-0.026,-0.02 -0.054,-0.035 -0.083,-0.044c-0.029,-0.009 -0.06,-0.013 -0.095,-0.013c-0.035,-0 -0.066,0.005 -0.092,0.016c-0.025,0.011 -0.045,0.026 -0.06,0.047c-0.014,0.02 -0.021,0.043 -0.021,0.07c0,0.032 0.01,0.057 0.03,0.076c0.019,0.018 0.051,0.032 0.096,0.041l0.104,0.022c0.067,0.014 0.117,0.035 0.149,0.063c0.033,0.029 0.049,0.067 0.049,0.116c0,0.03 -0.006,0.057 -0.018,0.081c-0.012,0.025 -0.029,0.046 -0.052,0.063c-0.023,0.018 -0.05,0.031 -0.082,0.041c-0.032,0.009 -0.068,0.014 -0.108,0.014Z" style="fill-rule:nonzero;"/></g><g transform="matrix(1164.17,0,0,1164.17,4522.28,1075.69)"><path d="M0.301,0.007c-0.013,-0 -0.023,-0.004 -0.03,-0.011c-0.007,-0.008 -0.011,-0.018 -0.011,-0.032l0,-0.598l-0.226,-0c-0.011,-0 -0.02,-0.003 -0.027,-0.01c-0.007,-0.006 -0.01,-0.015 -0.01,-0.026c-0,-0.011 0.003,-0.02 0.01,-0.026c0.007,-0.006 0.016,-0.009 0.028,-0.009l0.533,0c0.012,0 0.022,0.003 0.028,0.009c0.007,0.006 0.01,0.015 0.01,0.026c-0,0.011 -0.003,0.02 -0.01,0.026c-0.006,0.007 -0.016,0.01 -0.028,0.01l-0.225,-0l-0,0.598c-0,0.014 -0.004,0.024 -0.011,0.032c-0.006,0.007 -0.017,0.011 -0.031,0.011Z" style="fill-rule:nonzero;"/></g><g transform="matrix(1164.17,0,0,1164.17,5233.59,1075.69)"><path d="M0.298,0.007c-0.013,-0 -0.024,-0.004 -0.031,-0.011c-0.007,-0.008 -0.01,-0.019 -0.01,-0.033l-0,-0.328l0.018,0.057l-0.251,-0.346c-0.006,-0.008 -0.009,-0.017 -0.008,-0.026c-0,-0.01 0.003,-0.017 0.01,-0.023c0.006,-0.006 0.015,-0.009 0.026,-0.009c0.009,0 0.017,0.002 0.025,0.006c0.007,0.005 0.014,0.011 0.02,0.021l0.213,0.294l-0.021,-0l0.213,-0.294c0.007,-0.01 0.014,-0.017 0.021,-0.021c0.006,-0.004 0.014,-0.006 0.024,-0.006c0.011,0 0.019,0.003 0.025,0.009c0.006,0.005 0.01,0.012 0.01,0.021c0,0.009 -0.003,0.019 -0.01,0.029l-0.25,0.345l0.017,-0.057l0,0.328c0,0.029 -0.014,0.044 -0.041,0.044Z" style="fill-rule:nonzero;"/></g><g transform="matrix(1164.17,0,0,1164.17,5927.43,1075.69)"></g></g><g transform="matrix(0.997889,0,0,1,-0.350864,0)"><g transform="matrix(992.41,0,0,992.41,2324.01,1879.92)"><path d="M0.131,0.007c-0.014,-0 -0.024,-0.004 -0.032,-0.012c-0.008,-0.007 -0.012,-0.019 -0.012,-0.033l0,-0.622c0,-0.014 0.004,-0.026 0.012,-0.033c0.008,-0.008 0.019,-0.012 0.033,-0.012l0.363,0c0.011,0 0.02,0.003 0.026,0.009c0.006,0.006 0.009,0.014 0.009,0.025c0,0.011 -0.003,0.02 -0.009,0.026c-0.006,0.006 -0.015,0.009 -0.026,0.009l-0.326,-0l0,0.246l0.305,0c0.011,0 0.02,0.003 0.026,0.009c0.007,0.006 0.01,0.014 0.01,0.025c-0,0.011 -0.003,0.02 -0.01,0.026c-0.006,0.006 -0.015,0.009 -0.026,0.009l-0.305,-0l0,0.283c0,0.03 -0.012,0.045 -0.038,0.045Z" style="fill:#009739;fill-rule:nonzero;"/></g><g transform="matrix(992.41,0,0,992.41,2867.85,1879.92)"><path d="M0.365,0.009c-0.046,-0 -0.087,-0.006 -0.122,-0.019c-0.036,-0.012 -0.065,-0.03 -0.089,-0.054c-0.024,-0.025 -0.042,-0.055 -0.054,-0.091c-0.012,-0.036 -0.018,-0.077 -0.018,-0.124l0,-0.391c0,-0.014 0.004,-0.025 0.011,-0.031c0.007,-0.007 0.017,-0.011 0.03,-0.011c0.014,0 0.024,0.004 0.031,0.011c0.007,0.006 0.01,0.017 0.01,0.031l0,0.387c0,0.073 0.017,0.128 0.051,0.164c0.034,0.036 0.084,0.055 0.15,0.055c0.066,-0 0.115,-0.019 0.149,-0.055c0.034,-0.036 0.05,-0.091 0.05,-0.164l0,-0.387c0,-0.014 0.004,-0.025 0.011,-0.031c0.007,-0.007 0.017,-0.011 0.031,-0.011c0.013,0 0.023,0.004 0.03,0.011c0.007,0.006 0.01,0.017 0.01,0.031l0,0.391c0,0.062 -0.01,0.115 -0.032,0.158c-0.021,0.043 -0.052,0.075 -0.094,0.097c-0.042,0.022 -0.094,0.033 -0.155,0.033Z" style="fill:#009739;fill-rule:nonzero;"/></g><g transform="matrix(992.41,0,0,992.41,3590.33,1879.92)"><path d="M0.315,0.009c-0.032,-0 -0.062,-0.003 -0.092,-0.008c-0.03,-0.005 -0.057,-0.013 -0.083,-0.023c-0.026,-0.01 -0.049,-0.023 -0.07,-0.038c-0.008,-0.006 -0.014,-0.013 -0.017,-0.021c-0.003,-0.007 -0.004,-0.015 -0.002,-0.022c0.002,-0.008 0.005,-0.014 0.01,-0.02c0.005,-0.005 0.012,-0.008 0.019,-0.009c0.007,-0.001 0.015,0.001 0.024,0.007c0.03,0.022 0.062,0.037 0.096,0.047c0.034,0.01 0.072,0.014 0.115,0.014c0.06,0 0.104,-0.011 0.134,-0.033c0.029,-0.023 0.043,-0.052 0.043,-0.089c0,-0.03 -0.01,-0.053 -0.031,-0.07c-0.021,-0.017 -0.057,-0.031 -0.106,-0.041l-0.104,-0.021c-0.063,-0.013 -0.11,-0.035 -0.141,-0.065c-0.03,-0.031 -0.046,-0.072 -0.046,-0.122c0,-0.032 0.006,-0.06 0.019,-0.086c0.012,-0.025 0.03,-0.047 0.053,-0.065c0.022,-0.019 0.049,-0.033 0.081,-0.043c0.031,-0.01 0.066,-0.015 0.104,-0.015c0.042,0 0.081,0.006 0.117,0.017c0.037,0.012 0.07,0.03 0.099,0.053c0.007,0.006 0.012,0.012 0.015,0.02c0.002,0.008 0.003,0.015 0.001,0.022c-0.002,0.007 -0.005,0.013 -0.011,0.018c-0.005,0.005 -0.011,0.007 -0.019,0.008c-0.007,0.001 -0.016,-0.002 -0.025,-0.008c-0.026,-0.02 -0.054,-0.035 -0.083,-0.044c-0.029,-0.009 -0.06,-0.013 -0.095,-0.013c-0.035,-0 -0.066,0.005 -0.092,0.016c-0.025,0.011 -0.045,0.026 -0.06,0.047c-0.014,0.02 -0.021,0.043 -0.021,0.07c0,0.032 0.01,0.057 0.03,0.076c0.019,0.018 0.051,0.032 0.096,0.041l0.104,0.022c0.067,0.014 0.117,0.035 0.149,0.063c0.033,0.029 0.049,0.067 0.049,0.116c0,0.03 -0.006,0.057 -0.018,0.081c-0.012,0.025 -0.029,0.046 -0.052,0.063c-0.023,0.018 -0.05,0.031 -0.082,0.041c-0.032,0.009 -0.068,0.014 -0.108,0.014Z" style="fill:#009739;fill-rule:nonzero;"/></g><g transform="matrix(992.41,0,0,992.41,4200.66,1879.92)"><path d="M0.128,0.007c-0.013,-0 -0.023,-0.004 -0.03,-0.011c-0.007,-0.008 -0.011,-0.018 -0.011,-0.032l0,-0.633c0,-0.014 0.004,-0.025 0.011,-0.032c0.007,-0.007 0.017,-0.011 0.03,-0.011c0.014,0 0.024,0.004 0.031,0.011c0.007,0.007 0.01,0.018 0.01,0.032l0,0.633c0,0.014 -0.003,0.024 -0.01,0.032c-0.006,0.007 -0.017,0.011 -0.031,0.011Z" style="fill:#009739;fill-rule:nonzero;"/></g><g transform="matrix(992.41,0,0,992.41,4455.71,1879.92)"><path d="M0.383,0.009c-0.065,-0 -0.122,-0.015 -0.17,-0.045c-0.049,-0.029 -0.086,-0.071 -0.112,-0.125c-0.027,-0.054 -0.04,-0.118 -0.04,-0.192c-0,-0.056 0.007,-0.106 0.022,-0.15c0.015,-0.044 0.037,-0.082 0.065,-0.114c0.028,-0.031 0.062,-0.055 0.102,-0.072c0.039,-0.017 0.084,-0.025 0.133,-0.025c0.067,0 0.124,0.015 0.172,0.044c0.049,0.029 0.086,0.071 0.112,0.125c0.026,0.054 0.04,0.117 0.04,0.191c-0,0.056 -0.008,0.106 -0.023,0.151c-0.015,0.044 -0.037,0.082 -0.065,0.114c-0.028,0.032 -0.062,0.056 -0.102,0.073c-0.039,0.017 -0.084,0.025 -0.134,0.025Zm0,-0.073c0.051,-0 0.093,-0.012 0.128,-0.034c0.035,-0.023 0.062,-0.056 0.081,-0.099c0.018,-0.043 0.028,-0.095 0.028,-0.156c-0,-0.091 -0.021,-0.162 -0.062,-0.212c-0.041,-0.05 -0.099,-0.076 -0.175,-0.076c-0.049,0 -0.091,0.012 -0.127,0.034c-0.035,0.023 -0.062,0.055 -0.08,0.098c-0.019,0.043 -0.028,0.095 -0.028,0.156c-0,0.091 0.02,0.161 0.062,0.212c0.041,0.051 0.099,0.077 0.173,0.077Z" style="fill:#009739;fill-rule:nonzero;"/></g><g transform="matrix(992.41,0,0,992.41,5216.89,1879.92)"><path d="M0.126,0.007c-0.012,-0 -0.022,-0.004 -0.029,-0.011c-0.007,-0.007 -0.01,-0.017 -0.01,-0.03l0,-0.636c0,-0.013 0.003,-0.024 0.01,-0.031c0.007,-0.007 0.015,-0.011 0.026,-0.011c0.01,0 0.018,0.002 0.023,0.006c0.005,0.003 0.011,0.01 0.018,0.019l0.436,0.581l-0.024,-0l-0,-0.566c-0,-0.013 0.003,-0.023 0.01,-0.029c0.007,-0.007 0.016,-0.011 0.029,-0.011c0.012,0 0.021,0.004 0.028,0.011c0.006,0.006 0.009,0.016 0.009,0.029l0,0.639c0,0.012 -0.003,0.022 -0.009,0.029c-0.005,0.007 -0.014,0.011 -0.024,0.011c-0.01,-0 -0.018,-0.002 -0.024,-0.006c-0.006,-0.004 -0.012,-0.011 -0.019,-0.019l-0.435,-0.581l0.023,-0l-0,0.565c-0,0.013 -0.004,0.023 -0.01,0.03c-0.007,0.007 -0.016,0.011 -0.028,0.011Z" style="fill:#009739;fill-rule:nonzero;"/></g><g transform="matrix(992.41,0,0,992.41,5951.27,1879.92)"></g></g></svg>