<?xml version="1.0" encoding="UTF-8" standalone="no"?><!DOCTYPE svg PUBLIC "-//W3C//DTD SVG 1.1//EN" "http://www.w3.org/Graphics/SVG/1.1/DTD/svg11.dtd"><svg width="100%" height="100%" viewBox="0 0 2134 2134" version="1.1" xmlns="http://www.w3.org/2000/svg" xmlns:xlink="http://www.w3.org/1999/xlink" xml:space="preserve" xmlns:serif="http://www.serif.com/" style="fill-rule:evenodd;clip-rule:evenodd;stroke-linecap:round;stroke-linejoin:round;stroke-miterlimit:1.5;"><g id="Parasol"><path d="M843.418,218.742l221.519,1153.35l-81.971,15.744l-221.519,-1153.35l81.971,-15.744Z" style="fill:#f6ddb9;stroke:#000;stroke-width:16.67px;"/><path d="M1430.38,296.675c0.25,0.894 0.463,1.797 0.638,2.71l-590.541,113.192l-590.541,113.192c-14.554,-75.931 238.041,-188.163 564.188,-250.677c22.94,-4.397 45.632,-8.431 68.004,-12.105c-247.676,63.369 -421.868,151.642 -409.865,215.05l590.8,-111.832l367.317,-69.53Z" style="fill:#ef3340;stroke:#000;stroke-width:16.67px;"/><path d="M1430.38,296.675l-367.317,69.53l-590.8,111.832c-12.003,-63.408 162.189,-151.681 409.865,-215.05c291.879,-47.93 529.155,-34.553 548.252,33.688Z" style="fill:#ffd100;stroke:#000;stroke-width:16.67px;"/><path d="M703.19,298.888c35.77,-8.519 72.851,-16.496 110.934,-23.796c326.147,-62.514 602.34,-51.638 616.894,24.293l-590.541,113.192l-209.428,40.142l574.131,-110.886c-12.9,-66.795 -228.305,-82.935 -501.99,-42.945Z" style="fill:#009739;stroke:#000;stroke-width:16.67px;"/></g><g id="Straws"><path d="M1280.68,824.78l-51,663.812l-80.142,-6.158l55.415,-721.279l14.26,1.096l-1.397,-7.41l651.285,-122.831l14.896,78.986l-603.317,113.784Z" style="fill:#009739;stroke:#000;stroke-width:16.67px;"/><path d="M1149.54,1188.01l-0,-723.405l7.843,0l650.929,-295.328l33.21,73.197l-611.604,277.486l-0,668.05l-80.378,-0Z" style="fill:#ffd100;stroke:#000;stroke-width:16.67px;"/></g><g id="Coconut"><path d="M615.125,1140.16l951.348,-0c48.208,83.498 73.587,178.215 73.587,274.631c0,303.145 -246.116,549.261 -549.261,549.261c-303.146,-0 -549.262,-246.116 -549.262,-549.261c0,-96.416 25.38,-191.133 73.588,-274.631Z" style="fill:#889d13;stroke:#000;stroke-width:33.18px;"/><path d="M1476.48,1140.16l-771.361,-0l192.84,-132.129l385.681,0l192.84,132.129Z" style="fill:#e1d8c7;stroke:#000;stroke-width:33.18px;"/><rect x="1048.01" y="1785.88" width="14.16" height="174.641" style="fill:#f3ff21;stroke:#000;stroke-width:16.67px;"/><path d="M1187.26,1828.55l-114.392,131.963l-10.699,-9.275l114.391,-131.962l10.7,9.274Z" style="fill:#f3ff21;stroke:#000;stroke-width:16.67px;"/><path d="M957.544,1815.74l104.626,139.832l-11.338,8.483l-104.625,-139.832l11.337,-8.483Z" style="fill:#f3ff21;stroke:#000;stroke-width:16.67px;"/></g></svg>